<?xml version="1.0" encoding="UTF-8"?>
<svg id="Layer_2" data-name="Layer 2" xmlns="http://www.w3.org/2000/svg" viewBox="0 0 1670.99 784.31">
  <defs>
    <style>
      .cls-1 {
        fill: #fff;
        stroke-width: 0px;
      }
    </style>
  </defs>
  <g id="Layer_1-2" data-name="Layer 1">
    <path class="cls-1" d="M1642.77,425.49c-8.17,0-15.22,4.18-21.99,8.32,0,0-11.84,6.98-16.94,9.91-28.27,16.26-57.59,26.1-89.03,23.5-17.7-1.46-34.15-5.79-48.22-15.81-2.34-1.67-4.49-3.59-6.98-5.59,1.2-.58,1.82-.9,2.44-1.17,39.08-17.01,74.91-40.03,108.81-66.66,21.13-16.6,39.57-36.73,52.91-59.99,15.58-27.15,23.71-55.54,19.79-85.42-3.95-30.01-19.17-51.68-47.5-62.45-20.47-7.78-42.4-7.14-64.68-2.37-35.69,7.65-66.34,26-92,52.99-48.95,51.48-69.6,110.94-64.9,177.02.45,6.36,1.44,12.62,2.13,18.42-30.07,14.96-59.81,29.78-89.6,44.48-.97.48-2.11.49-3.03-.01-5.41-2.93-10.35-6.71-15.96-9.23-22.7-10.19-47.52-11.45-73.12-9.03-4.67.44-9.35,1.14-14.63,1.8,1.21-1.56,1.95-2.57,2.74-3.54,28.74-35.96,151.32-186.5,182.47-225.71.04-.11.09-.22.13-.33.94-1.29,1.56-2.78,2.31-4.19.33-.59.68-1.16.97-1.76.51-1.12.94-2.24,1.33-3.42.56-1.63.95-3.29,1.24-5,.09-.58.35-1.09.41-1.68.02-.21-.01-.41,0-.63.04-.52,0-1.05,0-1.57.05-1.44.09-2.87-.07-4.24-.14-1.39-.48-2.78-.81-4.17-.09-.33-.12-.68-.22-1.01-.13-.49-.16-.99-.32-1.48-5.34-16.37-22.96-25.32-39.34-20-.76.25-77.74,24.62-175.88,10.13-17.05-2.63-32.94,9.26-35.47,26.31-2.52,17.07,9.26,32.94,26.32,35.47,25.94,3.83,50.5,5.32,73.03,5.32s40.85-1.37,57.96-3.32c-25.72,31.53-120,144.99-151.46,183.5-6.28,7.7-13.35,14.87-20.52,21.81-10.59,10.26-22.25,19.04-36.1,24.09-25.13,9.15-47.35-.81-54.91-24.6-4.09-12.89-4.06-26.47-1.76-40.21,2.79-16.6,44.87-182.6,49.23-198.18.1-.35.37-1.37.45-1.72,0,0,.72-3.45.95-5.59,1.78-16.95-10.52-30.68-27.46-30.68s-29.77,13.16-34.23,30.68c-.01.05-2.46,11.18-3.68,15.42,0,0-1.58-3.38-2.12-4.52-10.54-22.15-27.08-37.62-52.12-42.56-32.74-6.46-64.73.22-95.51,17.72-28.33,16.1-49.67,39.33-66.79,66.61-13.98,22.27-24.14,46.05-33.98,69.99-10.07,24.53-19.96,49.14-31.01,73.32-9.75,21.36-22.96,40.89-40.75,57.24-6.86,6.3-14.28,11.65-23.27,14.29-10.5,3.08-21.2-.99-25.8-10.06-2.18-4.29-3.62-9.2-4.36-14.11-2.49-16.43.68-33.1,4.09-49.67,5.74-27.84,14.89-57.09,26.65-83.52,11.59-26.05,24.25-51.72,36.7-77.46.66-1.37,1.21-2.72,1.69-4.07,1.42-3.14,2.39-6.5,2.76-10.01,1.77-16.89-10.49-30.59-27.38-30.59-2.49,0-18.55,2.67-24.16,3.77-38.87,7.64-47.67,10.32-86.19,8.07-2.8-.17-5.58-.49-8.56-.76h0c.23-1.36.2-6.32.28-7.01,1.7-16.21-10.06-29.36-26.28-29.36s-29.39,13.02-32.44,29.36c-.05.26-1.19,4.95-3.09,13.26-7.06,30.97-15.32,61.73-26.36,91.96-12.76,34.92-30.53,70.65-53.46,101.17-10.48,13.96-25.79,26.86-39.83,37.47-1.36,1.03-2.87,1.87-5.08,3.29.68-1.39.86-1.81,1.08-2.2,19.73-34.64,32.2-70.61,36.55-108.05,1.21-9.01,2.08-18.07,2.32-27.25.62-24.28-2.72-47.53-12.19-68.84-18.66-41.97-51.34-65.51-100.01-66.97-24.06-.72-48.96,4.82-71.12,16.88-1.12.61-2.29,1.15-3.52,1.77-.03-.53-.07-.64-.04-.74,0,0,20.12-75.42,30.21-150.03C246.84,15.25,234.84.76,217.71.03c-15.13-.65-28.18,10.32-30.13,25.33-12.89,99.66-42.78,222.3-73.55,308.69-16.48,46.28-47.29,84.97-90.83,111.82-1.72,1.06-4.02,2.29-6.59,3.59-13.63,6.86-20.06,22.75-14.75,37.05,6.13,16.53,25.24,24.17,41.07,16.42,25.86-12.66,49.29-29.55,69.75-51.6.76-.82,1.54-1.61,2.53-2.66h0c.41,1.16.74,2.07,1.06,2.93,7.67,21.29,20.77,40.3,39.11,53.28,22.58,15.97,49.15,22.39,78,23.14,1.31.03,2.45-.18,3.69-.26l-.16.23c22.66.59,45.37-1.88,68-7.28,68.8-16.41,128.98-54.16,168.03-115.86,26.05-41.16,44.05-86.64,57.32-132.11,2.01-6.89,3.85-13.81,5.88-21.06,73.94,5.16,80.95-2.92,80.43-1.8-3.56,7.78-7.18,16.89-10.45,24.77-18.61,44.68-35.41,91.83-42.43,138.92-3.27,21.94-3.94,43.67,1.46,64.54,6.08,23.53,19.71,40.27,43.83,46.74,29.93,8.04,58.54,2.25,85.38-18.12,17.64-13.4,31.46-30.17,43.77-48.26,1.21-1.78,2.43-3.55,3.98-5.82h0c1.26,3.4,1.67,4.58,3,7.84,6.09,14.96,14.68,28.92,26.4,39.92,28.64,26.9,63.95,34.55,105.6,22.23,26.09-7.72,47.31-24.19,65.83-44.52,3.08-3.38,6.02-6.88,9.36-10.71.88,3.49,1.54,6.49,2.39,9.43,5.06,17.74,14.2,32.28,31.01,40.69,23.5,11.74,49.06,14.18,75.99,6.62,16.84-4.73,33.33-11.51,49.86-17.74,30.09-11.34,60.52-17.4,91.51-16.08,7.01.3,13.78,1.55,20.59,4.22-1.69,1.01-2.98,1.75-4.24,2.54-20.57,12.9-41.42,25.36-61.64,38.83-27.97,18.62-52.4,41.14-70.92,69.44-19.29,29.49-30.6,60.76-29.02,94.49,1.5,32.03,15.16,56.74,41.96,72.66,22.62,13.44,48.15,14.82,74.9,7.11,45.83-13.21,82.3-40.52,109.39-80.78,16.78-24.94,27.58-52.01,34.03-80.42,7.19-31.7,8.58-62.94,1.8-93.47-1.2-5.4-2.76-10.68-4.29-16.51h0c32.05-18.43,80.77-38.01,80.77-38.01,1,1.46,1.71,2.47,2.39,3.48,11.95,17.69,28.44,31.78,48.13,40.62,30.34,13.62,63.34,16.2,97.66,11.89,38.04-4.77,73.5-18.89,106.31-41.39,0,0,18.34-12.82,19.94-28.2,1.8-17.3-10.74-31.33-28.04-31.33ZM340.87,325.05c-6.72,46.5-23.81,84.73-56.9,116.65-10.82,10.44-23.01,18.5-37.13,22.75-23.12,6.96-42.52,2.5-58.23-12.76-12.99-12.62-19.76-28.87-21.79-47.22-5.73-51.79,9.06-99.74,45.73-143.03,9.16-10.82,19.91-19.87,32.35-26.62,30.29-16.44,65.63-9.04,82.25,17,8.93,13.99,12.92,30.04,13.82,47.23.51,9.85-.06,19.88-.1,26ZM927.23,422.74c-11.19,14.46-24.46,26.69-40.63,35.41-31.92,17.21-63.04,9.63-79.16-19.27-8.21-14.74-11.59-31.15-11.91-48.52-.09-4.84.1-9.71.3-14.01.23-5.07.71-10.16,1.62-15.18,7.1-39.5,22.11-73.74,49.6-103.25,12.3-13.2,26.43-23.83,43.41-29.58,27.82-9.43,52.5-.22,66.43,24.47,8.18,14.5,11.92,30.67,12.02,47.81.26,44.05-13.01,85.03-41.67,122.11ZM1207.45,700.54c-3.15,3.18-6.55,6.27-10.17,8.91-41.22,30.14-78.58,11.26-77.11-27.38.67-17.48,7.73-33.25,17.85-48.22,14.55-21.53,33.57-38.64,54.59-53.68,21.82-15.62,68.72-42.41,69.39-42.67,3.02,9.61,4.44,19.46,4.23,29.58-1.06,50.65-20.84,95.17-58.77,133.46ZM1439.08,393.79c-.91.45-1.85.83-3.45,1.54h0c-.21-7.42-.85-14.46-.56-21.56,1.71-41.1,15.92-79.01,43.38-112.96,3.31-4.09,7.06-7.86,11.11-11.21,22.9-18.93,48.48-32.74,71.43-24.76,13.53,4.71,21.32,17.6,20.53,33.26-.86,16.77-8.45,31.3-18.87,44.87-14.5,18.89-32.52,34.05-51.67,47.89-22.8,16.48-46.86,30.62-71.89,42.92Z"/>
  </g>
</svg>