<svg width="822" height="466" viewBox="0 0 822 466" fill="none" xmlns="http://www.w3.org/2000/svg">
<path d="M807.257 289.454C803.255 289.454 799.777 291.521 796.453 293.556C796.453 293.556 790.635 296.98 788.141 298.429C774.259 306.417 759.853 311.26 744.431 309.995C735.751 309.286 727.655 307.158 720.76 302.223C719.621 301.39 718.544 300.465 717.343 299.478C717.928 299.2 718.236 299.046 718.544 298.892C737.721 290.534 755.328 279.184 771.95 266.107C782.324 257.934 791.374 248.034 797.93 236.591C805.595 223.237 809.566 209.266 807.657 194.585C805.718 179.812 798.238 169.171 784.325 163.866C774.259 160.042 763.516 160.35 752.558 162.694C735.043 166.457 719.99 175.494 707.4 188.756C683.36 214.077 673.233 243.346 675.541 275.822C675.757 278.937 676.249 282.021 676.588 284.89C661.812 292.261 647.222 299.54 632.6 306.757C632.139 307.003 631.554 307.003 631.123 306.757C628.476 305.307 626.044 303.457 623.273 302.223C612.13 297.196 599.941 296.579 587.382 297.782C585.073 297.998 582.795 298.337 580.21 298.676C580.794 297.905 581.164 297.412 581.564 296.918C595.662 279.246 655.872 205.164 671.139 185.887C671.139 185.826 671.17 185.764 671.201 185.733C671.663 185.086 671.97 184.376 672.34 183.667C672.494 183.389 672.678 183.112 672.832 182.803C673.079 182.248 673.294 181.693 673.479 181.138C673.756 180.336 673.941 179.503 674.094 178.67C674.125 178.393 674.279 178.146 674.31 177.838C674.31 177.745 674.31 177.622 674.31 177.529C674.31 177.283 674.31 177.005 674.31 176.758C674.31 176.049 674.341 175.34 674.279 174.661C674.218 173.983 674.033 173.304 673.879 172.595C673.848 172.44 673.817 172.255 673.787 172.101C673.725 171.854 673.694 171.608 673.633 171.361C671.016 163.311 662.367 158.901 654.332 161.522C653.963 161.646 616.163 173.643 567.989 166.519C559.616 165.223 551.829 171.083 550.567 179.472C549.335 187.861 555.122 195.664 563.495 196.929C576.239 198.81 588.274 199.55 599.356 199.55C610.437 199.55 619.426 198.872 627.798 197.916C615.178 213.429 568.882 269.253 553.429 288.19C550.351 291.983 546.873 295.499 543.364 298.923C538.161 303.981 532.436 308.299 525.633 310.766C513.29 315.269 502.393 310.365 498.668 298.676C496.667 292.323 496.667 285.661 497.806 278.906C499.161 270.733 519.846 189.095 521.97 181.415C522.032 181.23 522.155 180.737 522.186 180.583C522.186 180.583 522.555 178.886 522.647 177.838C523.509 169.51 517.476 162.756 509.165 162.756C500.854 162.756 494.543 169.233 492.358 177.838C492.358 177.838 491.157 183.328 490.542 185.425C490.542 185.425 489.772 183.759 489.495 183.204C484.324 172.317 476.197 164.699 463.915 162.263C447.847 159.086 432.149 162.386 417.035 170.991C403.121 178.917 392.655 190.329 384.252 203.745C377.387 214.694 372.401 226.383 367.568 238.164C362.612 250.224 357.779 262.344 352.331 274.218C347.529 284.736 341.065 294.327 332.323 302.377C328.968 305.492 325.304 308.114 320.903 309.409C315.762 310.92 310.498 308.916 308.221 304.474C307.143 302.377 306.435 299.941 306.097 297.535C304.865 289.454 306.435 281.25 308.097 273.108C310.929 259.414 315.393 245.011 321.18 232.027C326.874 219.227 333.092 206.582 339.187 193.937C339.526 193.259 339.772 192.611 340.018 191.932C340.726 190.39 341.188 188.725 341.373 186.998C342.235 178.701 336.232 171.947 327.921 171.947C326.69 171.947 318.809 173.273 316.07 173.797C296.985 177.56 292.676 178.886 273.745 177.776C272.36 177.684 271.005 177.529 269.558 177.406C269.682 176.727 269.651 174.291 269.682 173.952C270.513 165.964 264.726 159.518 256.784 159.518C248.842 159.518 242.347 165.933 240.87 173.952C240.87 174.075 240.285 176.388 239.361 180.49C235.883 195.726 231.851 210.869 226.433 225.735C220.184 242.914 211.442 260.494 200.176 275.514C195.035 282.392 187.525 288.714 180.629 293.957C179.952 294.451 179.213 294.883 178.136 295.561C178.475 294.883 178.567 294.667 178.659 294.482C188.356 277.457 194.481 259.754 196.605 241.341C197.19 236.9 197.621 232.459 197.744 227.925C198.052 215.989 196.421 204.547 191.772 194.061C182.599 173.427 166.562 161.831 142.675 161.121C130.855 160.751 118.635 163.496 107.769 169.418C107.215 169.726 106.66 169.973 106.045 170.281C106.045 170.035 106.014 169.973 106.045 169.911C106.045 169.911 115.926 132.809 120.882 96.1069C121.898 87.6562 116.018 80.5317 107.584 80.1616C100.165 79.8532 93.7321 85.2505 92.7778 92.6217C86.4367 141.66 71.7845 201.987 56.6706 244.487C48.575 267.248 33.461 286.278 12.0676 299.478C11.2365 300.002 10.0976 300.619 8.83551 301.236C2.15583 304.598 -1.01471 312.432 1.60176 319.463C4.61839 327.606 14.0069 331.368 21.7639 327.544C34.4461 321.314 45.9585 313.018 55.9934 302.161C56.3628 301.76 56.763 301.359 57.2247 300.866C57.4402 301.421 57.5941 301.884 57.748 302.315C61.5034 312.802 67.9368 322.147 76.9559 328.531C88.0374 336.396 101.089 339.542 115.249 339.912C115.895 339.912 116.449 339.819 117.065 339.788L116.972 339.912C128.085 340.189 139.259 338.986 150.371 336.334C184.139 328.253 213.689 309.687 232.866 279.338C245.672 259.106 254.506 236.715 261.001 214.354C261.986 210.962 262.879 207.569 263.895 203.992C300.186 206.521 303.634 202.542 303.388 203.097C301.633 206.922 299.879 211.394 298.247 215.28C289.105 237.27 280.855 260.463 277.408 283.625C275.807 294.42 275.469 305.091 278.116 315.362C281.102 326.927 287.781 335.162 299.632 338.339C314.315 342.286 328.383 339.449 341.557 329.425C350.207 322.825 357.01 314.59 363.043 305.677C363.628 304.814 364.244 303.919 365.013 302.809C365.629 304.474 365.844 305.06 366.491 306.664C369.477 314.035 373.694 320.882 379.45 326.31C393.517 339.542 410.847 343.304 431.287 337.228C444.092 333.435 454.527 325.323 463.608 315.331C465.116 313.665 466.563 311.938 468.194 310.057C468.625 311.784 468.964 313.264 469.364 314.683C471.857 323.411 476.351 330.567 484.601 334.699C496.144 340.467 508.672 341.67 521.909 337.969C530.189 335.655 538.285 332.294 546.38 329.24C561.156 323.658 576.085 320.666 591.322 321.314C594.769 321.468 598.094 322.085 601.418 323.38C600.587 323.874 599.941 324.244 599.325 324.614C589.229 330.967 578.978 337.105 569.067 343.705C555.338 352.865 543.333 363.937 534.252 377.878C524.771 392.374 519.231 407.764 520 424.357C520.739 440.117 527.449 452.268 540.593 460.102C551.706 466.702 564.234 467.381 577.378 463.587C599.879 457.08 617.794 443.664 631.092 423.863C639.342 411.588 644.636 398.264 647.807 384.293C651.347 368.687 652.024 353.328 648.699 338.308C648.114 335.655 647.345 333.065 646.606 330.196C662.336 321.129 686.253 311.506 686.253 311.506C686.746 312.216 687.084 312.709 687.423 313.203C693.302 321.9 701.398 328.839 711.064 333.188C725.962 339.881 742.153 341.145 759.022 339.048C777.706 336.704 795.098 329.765 811.228 318.692C811.228 318.692 820.247 312.401 821.017 304.814C821.909 296.301 815.753 289.393 807.257 289.393V289.454ZM168.07 240.046C164.777 262.93 156.373 281.713 140.151 297.442C134.826 302.562 128.854 306.541 121.928 308.638C110.57 312.061 101.058 309.872 93.3319 302.377C86.96 296.178 83.6356 288.19 82.6198 279.153C79.8186 253.678 87.0832 230.084 105.06 208.803C109.554 203.467 114.848 199.026 120.943 195.695C135.811 187.615 153.172 191.254 161.329 204.053C165.7 210.931 167.67 218.827 168.101 227.277C168.347 232.119 168.101 237.054 168.04 240.077L168.07 240.046ZM455.943 288.097C450.464 295.222 443.938 301.236 435.996 305.523C420.328 313.974 405.03 310.273 397.119 296.055C393.086 288.807 391.424 280.726 391.27 272.183C391.239 269.808 391.332 267.402 391.424 265.305C391.547 262.807 391.763 260.309 392.224 257.841C395.703 238.411 403.09 221.571 416.573 207.045C422.606 200.568 429.563 195.325 437.874 192.488C451.541 187.861 463.638 192.395 470.503 204.516C474.504 211.64 476.351 219.598 476.413 228.048C476.536 249.73 470.041 269.87 455.943 288.128V288.097ZM593.507 424.758C591.968 426.33 590.306 427.842 588.521 429.137C568.297 443.972 549.951 434.689 550.659 415.659C550.998 407.054 554.445 399.313 559.432 391.942C566.573 381.363 575.9 372.943 586.243 365.541C596.955 357.862 619.98 344.692 620.318 344.538C621.796 349.257 622.504 354.099 622.381 359.095C621.858 384.015 612.161 405.913 593.538 424.758H593.507ZM707.216 273.848C706.754 274.064 706.323 274.249 705.523 274.619C705.43 270.98 705.092 267.495 705.246 264.01C706.077 243.808 713.064 225.149 726.547 208.433C728.178 206.428 730.025 204.578 731.995 202.912C743.231 193.598 755.79 186.813 767.056 190.73C773.705 193.043 777.522 199.396 777.122 207.107C776.691 215.341 772.966 222.497 767.856 229.189C760.746 238.473 751.88 245.937 742.492 252.753C731.287 260.864 719.498 267.803 707.185 273.848H707.216Z" fill="white"/>
<path d="M651.663 21.434H666.264L676.68 52.31L687.468 21.434H701.139L675.75 88.952H662.172L669.984 69.236L651.663 21.434Z" fill="white"/>
<path d="M628.589 20.318C641.236 20.318 650.258 30.269 650.258 44.684C650.258 59.192 641.33 69.794 628.589 69.794C621.893 69.794 616.964 67.097 613.523 62.726V68.678H600.875V0.787964H614.267V26.456C617.615 22.643 622.358 20.318 628.589 20.318ZM625.612 31.292C618.637 31.292 614.081 36.779 614.081 45.056C614.081 53.333 618.823 58.82 625.612 58.82C632.401 58.82 636.68 53.147 636.68 44.963C636.68 36.965 632.308 31.292 625.612 31.292Z" fill="white"/>
<path d="M542.557 69.794C529.816 69.794 520.795 59.75 520.795 45.335C520.795 30.92 529.723 20.318 542.557 20.318C548.695 20.318 553.438 22.55 556.786 26.456V0.787964H570.178V68.678H557.53V62.726C554.275 67.097 549.253 69.794 542.557 69.794ZM545.44 58.82C552.415 58.82 556.972 53.333 556.972 45.056C556.972 36.779 552.229 31.199 545.44 31.199C538.651 31.199 534.373 36.872 534.373 45.056C534.373 53.147 538.744 58.82 545.44 58.82Z" fill="white"/>
<path d="M494.343 69.794C479.742 69.794 469.977 60.494 469.977 45.056C469.977 30.548 480.021 20.318 493.878 20.318C506.526 20.318 515.547 28.874 515.547 42.917C515.547 45.614 515.361 47.567 515.268 48.311H483.183C484.206 56.309 489.135 59.192 495.366 59.192C500.388 59.192 504.573 56.588 507.363 53.24L514.803 61.052C509.781 67.19 502.992 69.794 494.343 69.794ZM493.692 30.269C488.949 30.269 484.857 32.966 483.462 39.662H502.434C502.062 32.501 497.877 30.269 493.692 30.269Z" fill="white"/>
<path d="M438.39 21.434H451.038V30.362C453.828 24.41 458.385 20.969 464.43 20.969C466.29 20.969 468.057 21.248 468.894 21.434L467.778 33.152C466.941 32.966 465.732 32.78 464.244 32.78C456.897 32.78 451.782 37.616 451.782 49.055V68.678H438.39V21.434Z" fill="white"/>
<path d="M409.241 69.794C394.64 69.794 384.875 60.494 384.875 45.056C384.875 30.548 394.919 20.318 408.776 20.318C421.424 20.318 430.445 28.874 430.445 42.917C430.445 45.614 430.259 47.567 430.166 48.311H398.081C399.104 56.309 404.033 59.192 410.264 59.192C415.286 59.192 419.471 56.588 422.261 53.24L429.701 61.052C424.679 67.19 417.89 69.794 409.241 69.794ZM408.59 30.269C403.847 30.269 399.755 32.966 398.36 39.662H417.332C416.96 32.501 412.775 30.269 408.59 30.269Z" fill="white"/>
<path d="M312.489 21.434H325.881L333.786 52.124L341.505 21.434H354.06L361.872 52.31L369.87 21.434H382.797L368.103 68.678H355.641L347.55 39.383L339.645 68.678H327.183L312.489 21.434Z" fill="white"/>
<path d="M285.549 20.318C300.522 20.318 310.473 30.548 310.473 45.056C310.473 59.657 300.522 69.794 285.549 69.794C270.669 69.794 260.811 59.657 260.811 45.056C260.811 30.548 270.669 20.318 285.549 20.318ZM285.549 31.385C278.481 31.385 274.389 37.058 274.389 45.056C274.389 52.868 278.481 58.634 285.549 58.634C292.803 58.634 296.895 52.868 296.895 45.056C296.895 37.058 292.803 31.385 285.549 31.385Z" fill="white"/>
<path d="M205.102 3.578H234.211C248.533 3.578 258.112 13.436 258.112 25.061C258.112 37.895 248.347 48.497 233.932 48.497H219.145V68.678H205.102V3.578ZM231.979 15.017H219.145V36.965H231.979C239.14 36.965 243.883 32.036 243.883 25.34C243.883 19.388 239.14 15.017 231.979 15.017Z" fill="white"/>
</svg>
